# xmcd CD database file
#
# Track frame offsets:
#	150
#	10645
#	24457
#	35430
#	50477
#	66632
#	80230
#	94097
#	106240
#	119725
#	134797
#	147737
#	161345
#	171122
#	180825
#	194045
#	206855
#	218620
#	239097
#	248807
#
# Disc length: 3459 seconds
#
# Revision: 0
# Processed by: cddbd v1.5.1PL0 Copyright (c) Steve Scherf et al.
# Submitted via: CDex 1.51
#
DISCID=320d8114
DTITLE=Chet Baker - Chet Baker Sings (Stereo)+8
DYEAR=1957
DGENRE=Jazz
TTITLE0=My Funny Valentine
TTITLE1=That Old Feeling
TTITLE2=Like Someone In Love
TTITLE3=My Buddy
TTITLE4=It's Always You
TTITLE5=Someone To Watch Over Me
TTITLE6=But Not For Me
TTITLE7=Look For The Silver Lining
TTITLE8=I Get Along Without You Very Well
TTITLE9=I Fall In Love Too Easily
TTITLE10=The Thrill Is Gone
TTITLE11=There Will Never Be Another You
TTITLE12=They All Laughed
TTITLE13=Come Rain Or Come Shine
TTITLE14=There's A Lulu In My Life
TTITLE15=While My Lady Sleeps
TTITLE16=Forgetfull
TTITLE17=Little Girl Blue
TTITLE18=Embraceable You
TTITLE19=The Night We Called It A Day
EXTD=YEAR: 1957
EXTT0=
EXTT1=
EXTT2=
EXTT3=
EXTT4=
EXTT5=
EXTT6=
EXTT7=
EXTT8=
EXTT9=
EXTT10=
EXTT11=
EXTT12=
EXTT13=
EXTT14=
EXTT15=
EXTT16=
EXTT17=
EXTT18=
EXTT19=
PLAYORDER=
